<?xml version="1.0" encoding="utf-8"?>
<!-- Generator: Adobe Illustrator 16.0.0, SVG Export Plug-In . SVG Version: 6.00 Build 0)  -->
<!DOCTYPE svg PUBLIC "-//W3C//DTD SVG 1.1//EN" "http://www.w3.org/Graphics/SVG/1.1/DTD/svg11.dtd">
<svg version="1.1" id="Layer_1" xmlns="http://www.w3.org/2000/svg" xmlns:xlink="http://www.w3.org/1999/xlink" x="0px" y="0px"
	 width="595.28px" height="841.89px" viewBox="0 0 595.28 841.89" enable-background="new 0 0 595.28 841.89" xml:space="preserve">
<g>
	<polyline fill="#C0E85B" points="495,980.333 515.184,960.333 495.517,960.333 	"/>
	<polygon fill="#C0E85B" points="532.717,980.333 552.9,960.333 533.232,960.333 513.049,980.333 	"/>
	<polygon fill="#C0E85B" points="570.434,980.333 590.617,960.333 570.95,960.333 550.767,980.333 	"/>
	<polygon fill="#C0E85B" points="608.15,980.333 628.334,960.333 608.667,960.333 588.483,980.333 	"/>
	<polygon fill="#C0E85B" points="645.867,980.333 666.051,960.333 646.383,960.333 626.199,980.333 	"/>
	<polygon fill="#C0E85B" points="683.584,980.333 703.768,960.333 684.101,960.333 663.917,980.333 	"/>
	<polygon fill="#C0E85B" points="721.301,980.333 741.484,960.333 721.818,960.333 701.635,980.333 	"/>
	<polygon fill="#C0E85B" points="759.018,980.333 779.201,960.333 759.534,960.333 739.351,980.333 	"/>
	<polygon fill="#C0E85B" points="796.734,980.333 816.918,960.333 797.251,960.333 777.067,980.333 	"/>
	<polygon fill="#C0E85B" points="834.451,980.333 854.635,960.333 834.968,960.333 814.784,980.333 	"/>
	<polygon fill="#C0E85B" points="872.168,980.333 892.352,960.333 872.686,960.333 852.502,980.333 	"/>
	<polygon fill="#C0E85B" points="909.886,980.333 930.069,960.333 910.402,960.333 890.219,980.333 	"/>
	<polygon fill="#C0E85B" points="947.603,980.333 967.786,960.333 948.119,960.333 927.936,980.333 	"/>
	<polygon fill="#C0E85B" points="985.319,980.333 1005.503,960.333 985.836,960.333 965.652,980.333 	"/>
	<polygon fill="#C0E85B" points="1023.036,980.333 1043.22,960.333 1023.553,960.333 1003.369,980.333 	"/>
	<polyline fill="#C0E85B" points="1061.27,960.333 1041.086,980.333 1060.753,980.333 	"/>
</g>
</svg>
